<?xml version="1.0" encoding="UTF-8"?>
<svg id="Capa_1" data-name="Capa 1" xmlns="http://www.w3.org/2000/svg" viewBox="0 0 2.4 2.4">
  <defs>
    <style>
      .cls-1 {
        fill: #fff;
      }

      .cls-2 {
        fill: #494949;
      }
    </style>
  </defs>
  <circle class="cls-2" cx="1.2" cy="1.2" r="1.2"/>
  <g>
    <path class="cls-1" d="m1.2.58c.2,0,.23,0,.31,0,.07,0,.11.02.14.03.04.01.06.03.09.06.03.03.04.05.06.09.01.03.02.07.03.14,0,.08,0,.1,0,.31s0,.23,0,.31c0,.07-.02.11-.03.14-.01.04-.03.06-.06.09-.03.03-.05.04-.09.06-.03.01-.07.02-.14.03-.08,0-.1,0-.31,0s-.23,0-.31,0c-.07,0-.11-.02-.14-.03-.04-.01-.06-.03-.09-.06-.03-.03-.04-.05-.06-.09-.01-.03-.02-.07-.03-.14,0-.08,0-.1,0-.31s0-.23,0-.31c0-.07.02-.11.03-.14.01-.04.03-.06.06-.09.03-.03.05-.04.09-.06.03-.01.07-.02.14-.03.08,0,.1,0,.31,0m0-.14c-.21,0-.23,0-.31,0-.08,0-.14.02-.18.04-.05.02-.09.05-.13.09-.04.04-.07.08-.09.13-.02.05-.03.1-.04.18,0,.08,0,.11,0,.31s0,.23,0,.31c0,.08.02.14.04.18.02.05.05.09.09.13.04.04.08.07.13.09.05.02.1.03.18.04.08,0,.11,0,.31,0s.23,0,.31,0c.08,0,.14-.02.18-.04.05-.02.09-.05.13-.09.04-.04.07-.08.09-.13.02-.05.03-.1.04-.18,0-.08,0-.11,0-.31s0-.23,0-.31c0-.08-.02-.14-.04-.18-.02-.05-.05-.09-.09-.13-.04-.04-.08-.07-.13-.09-.05-.02-.1-.03-.18-.04-.08,0-.11,0-.31,0h0Z"/>
    <path class="cls-1" d="m1.2.81c-.21,0-.39.17-.39.39s.17.39.39.39.39-.17.39-.39-.17-.39-.39-.39Zm0,.64c-.14,0-.25-.11-.25-.25s.11-.25.25-.25.25.11.25.25-.11.25-.25.25Z"/>
    <circle class="cls-1" cx="1.6" cy=".8" r=".09"/>
  </g>
</svg>