<?xml version="1.0" encoding="UTF-8"?>
<svg id="Capa_1" data-name="Capa 1" xmlns="http://www.w3.org/2000/svg" viewBox="0 0 2.4 2.4">
  <defs>
    <style>
      .cls-1 {
        fill: #103c9e;
      }

      .cls-2 {
        fill: #fdfdfd;
      }
    </style>
  </defs>
  <circle class="cls-1" cx="1.2" cy="1.2" r="1.2"/>
  <g>
    <path class="cls-2" d="m1.29,1.04s.04-.04.06-.06c.06-.06.14-.09.22-.09.05,0,.09,0,.14.02.1.03.16.1.19.2.02.08.03.15.03.23,0,.17,0,.33,0,.5,0,.02,0,.02-.02.02-.09,0-.17,0-.26,0-.02,0-.02,0-.02-.02,0-.16,0-.32,0-.47,0-.04,0-.08-.01-.12-.02-.07-.07-.11-.15-.1-.1,0-.15.06-.17.16,0,.02,0,.05,0,.07,0,.15,0,.31,0,.46,0,.02,0,.02-.02.02-.09,0-.17,0-.26,0-.01,0-.02,0-.02-.02,0-.3,0-.61,0-.91,0-.02,0-.02.02-.02.08,0,.16,0,.25,0,.02,0,.02,0,.02.02,0,.04,0,.07,0,.11Z"/>
    <path class="cls-2" d="m.82,1.38c0,.15,0,.3,0,.45,0,.02,0,.02-.02.02-.09,0-.17,0-.26,0-.01,0-.02,0-.02-.02,0-.3,0-.61,0-.91,0-.01,0-.02.02-.02.09,0,.17,0,.26,0,.02,0,.02,0,.02.02,0,.15,0,.3,0,.45Z"/>
    <path class="cls-2" d="m.85.61c0,.09-.08.17-.17.17-.09,0-.17-.08-.17-.17,0-.09.08-.17.17-.17.09,0,.17.08.17.17Z"/>
  </g>
</svg>