<?xml version="1.0" encoding="UTF-8"?>
<svg id="Capa_1" data-name="Capa 1" xmlns="http://www.w3.org/2000/svg" viewBox="0 0 2.4 2.4">
  <defs>
    <style>
      .cls-1 {
        fill: #fff;
      }

      .cls-2 {
        fill: #2196f3;
      }
    </style>
  </defs>
  <circle class="cls-2" cx="1.2" cy="1.2" r="1.2"/>
  <path class="cls-1" d="m.96,1.89c.59,0,.91-.49.91-.91,0-.01,0-.03,0-.04.06-.04.12-.1.16-.16-.06.03-.12.04-.18.05.07-.04.12-.1.14-.18-.06.04-.13.06-.2.08-.06-.06-.14-.1-.23-.1-.18,0-.32.14-.32.32,0,.03,0,.05,0,.07-.26-.01-.5-.14-.66-.33-.03.05-.04.1-.04.16,0,.11.06.21.14.27-.05,0-.1-.02-.14-.04,0,0,0,0,0,0,0,.15.11.28.26.31-.03,0-.05.01-.08.01-.02,0-.04,0-.06,0,.04.13.16.22.3.22-.11.09-.25.14-.4.14-.03,0-.05,0-.08,0,.14.09.31.14.49.14"/>
</svg>